<?xml version="1.0" ?>
<!-- Uploaded to: SVG Repo, www.svgrepo.com, Generator: SVG Repo Mixer Tools -->
<svg width="800px" height="800px" viewBox="0 0 32 32" xmlns="http://www.w3.org/2000/svg">
<title/>
<g data-name="Water Fountain" id="Water_Fountain">
<path d="M19.4881,28.87v.65H12.52v-.65a3.4731,3.4731,0,0,1,2.015-3.159v-2.405c.429.052.858.091,1.3.104h.338c.442-.013.871-.052,1.3-.104v2.405A3.4731,3.4731,0,0,1,19.4881,28.87Z" style="fill:#444"/>
<path d="M18.9811,21.5635a1.2667,1.2667,0,0,1-.143.065.6436.6436,0,0,0,.169-.052C18.9941,21.5765,18.9941,21.5765,18.9811,21.5635Z" style="fill:#444"/>
<path d="M25.8581,12.9055v.65a9.9069,9.9069,0,0,1-4.069,7.982l-.936-.52-.351-.195a9.8758,9.8758,0,0,0-9.009.013c-.117.052-.221.117-.338.182l-.936.52a9.9069,9.9069,0,0,1-4.069-7.982v-.65Z" style="fill:#444"/>
<path d="M18.9811,21.5635a1.2667,1.2667,0,0,1-.143.065.7329.7329,0,0,1-.156.052,3.4357,3.4357,0,0,1-.52.156,6.4449,6.4449,0,0,1-.871.169,3.553,3.553,0,0,1-.52.065,7.3228,7.3228,0,0,1-.754.039h-.026a7.3228,7.3228,0,0,1-.754-.039c-.195-.013-.39-.039-.585-.065a2.2045,2.2045,0,0,1-.286-.052,7.2213,7.2213,0,0,1-1.352-.377A8.4954,8.4954,0,0,1,18.9811,21.5635Z" style="fill:#444"/>
<rect height="1.612" style="fill:#444" width="2.938" x="14.5351" y="11.2935"/>
<path d="M28.4373,6.7873a6.9086,6.9086,0,0,0-1.03-.8919l.7491-1.0625a8.2133,8.2133,0,0,1,1.2245,1.0607Z" style="fill:#444"/>
<path d="M23.4791,3.3505v1.3a6.309,6.309,0,0,0-3.549,1.157v-.143h-1.885A7.9087,7.9087,0,0,1,23.4791,3.3505Z" style="fill:#444"/>
<path d="M26.5932,5.4022a6.8512,6.8512,0,0,0-1.3425-.5173,6.6734,6.6734,0,0,0-.9534-.1834L24.451,3.41a8.0937,8.0937,0,0,1,2.7352.8354Z" style="fill:#444"/>
<path d="M3.5354,6.7873l-.9433-.8937A8.1982,8.1982,0,0,1,3.8166,4.8329l.7491,1.0625A6.9086,6.9086,0,0,0,3.5354,6.7873Z" style="fill:#444"/>
<path d="M13.9241,5.6645h-1.846v.169A6.2648,6.2648,0,0,0,8.49,4.6505v-1.3A7.957,7.957,0,0,1,13.9241,5.6645Z" style="fill:#444"/>
<path d="M5.3793,5.4022,4.7865,4.2457A8.1066,8.1066,0,0,1,7.5211,3.41l.1536,1.2912a6.617,6.617,0,0,0-.9516.1834A6.8159,6.8159,0,0,0,5.3793,5.4022Z" style="fill:#444"/>
<rect height="3.029" style="fill:#444" width="5.252" x="13.3781" y="6.9645"/>
</g>
</svg>